<mxfile host="app.diagrams.net" modified="2024-02-03T11:06:49.260Z" agent="Mozilla/5.0 (Macintosh; Intel Mac OS X 10_15_7) AppleWebKit/537.36 (KHTML, like Gecko) Chrome/120.0.0.0 Safari/537.36" version="22.1.15" etag="g-hJN2uq6EeoPUe3lCqB" type="github">
  <diagram name="페이지-1" id="fd777ET8Wswy1TRveRwB">
    <mxGraphModel>
      <root>
        <mxCell id="0" />
        <mxCell id="1" parent="0" />
      </root>
    </mxGraphModel>
  </diagram>
</mxfile>
